<svg xmlns="http://www.w3.org/2000/svg" viewBox="0 0 1996.03 1924.36"><defs><style>.cls-1{fill:white;}.cls-2,.cls-4{fill:none;stroke:#e1022c;stroke-miterlimit:10;}.cls-2{stroke-width:33px;}.cls-3{fill:#e1022c;}.cls-4{stroke-width:100px;}</style></defs><title>logo</title><g id="Ebene_3" data-name="Ebene 3"><circle class="cls-1" cx="992.42" cy="227.34" r="165.89"/><path class="cls-1" d="M997,492.54,61.22,650c-39,6.23-65.17,47.8-58.06,92.38h0c7.11,44.58,44.87,76,83.91,69.74L901.9,682.19c39-6.23,65.17-47.8,58.06-92.38h0C1043.72,633.69,1044.83,494.84,997,492.54Z" transform="translate(-1.99 -59.89)"/><path class="cls-1" d="M997,492.54,1938.78,650c39,6.23,65.17,47.8,58.06,92.38h0c-7.11,44.58-44.87,76-83.91,69.74L1098.1,682.19c-39-6.23-65.17-47.8-58.06-92.38h0C956.28,633.69,949.23,494.84,997,492.54Z" transform="translate(-1.99 -59.89)"/><path class="cls-1" d="M1056.08,1914.77,1016.55,668.09c-1.37-43.19,33.5-82.87,77.48-88.17l52.18-6.29c44-5.3,81.09,25.7,82.46,68.89l39.53,1246.68c1.37,43.19-33.5,82.87-77.48,88.17l-52.18,6.29C1094.56,1989,1057.45,1958,1056.08,1914.77Z" transform="translate(-1.99 -59.89)"/><path class="cls-1" d="M928.51,1914.77,968,668.09c1.37-43.19-33.5-82.87-77.48-88.17l-52.18-6.29c-44-5.3-81.09,25.7-82.46,68.89L716.38,1889.2c-1.37,43.19,33.5,82.87,77.48,88.17l52.18,6.29C890,1989,927.14,1958,928.51,1914.77Z" transform="translate(-1.99 -59.89)"/><rect class="cls-1" x="792.64" y="487.64" width="347.75" height="843.98" rx="12" ry="12"/></g><g id="Diagnose_Frequenz" data-name="Diagnose Frequenz"><polyline id="Körper" class="cls-2" points="745.01 904.61 860.42 904.61 905.48 838.54 947.93 980.44 1007.36 744.88 1057.45 1096.21 1106.7 887.67 1234.57 895.13"/><polygon class="cls-3" points="1237.01 910.11 1236.1 878.73 1234.97 878.69 1232.73 911.48 1237.08 911.45 1237.01 910.11"/></g><g id="Ebene_4" data-name="Ebene 4"><line class="cls-4" x1="1656.7" y1="0.3" x2="1654.1" y2="439.06"/><line class="cls-4" x1="1436.02" y1="219.68" x2="1874.78" y2="222.27"/></g></svg>