<svg xmlns="http://www.w3.org/2000/svg" viewBox="0 0 2792.95 1992.9"><defs><style>.cls-1,.cls-5{fill:#003a81;}.cls-2,.cls-4{fill:none;stroke:#e1022c;stroke-miterlimit:10;}.cls-2{stroke-width:33px;}.cls-3{fill:#e1022c;}.cls-4{stroke-width:100px;}.cls-5{font-size:300px;font-family:HelveticaNeue-Bold, Helvetica Neue;font-weight:700;}</style></defs><title>MaxLogoMitNamen</title><g id="Ebene_3" data-name="Ebene 3"><circle class="cls-1" cx="1389.34" cy="295.88" r="165.89"/><path class="cls-1" d="M997,492.54,61.22,650c-39,6.23-65.17,47.8-58.06,92.38h0c7.11,44.58,44.87,76,83.91,69.74L901.9,682.19c39-6.23,65.17-47.8,58.06-92.38h0C1043.72,633.69,1044.83,494.84,997,492.54Z" transform="translate(394.93 8.65)"/><path class="cls-1" d="M997,492.54,1938.78,650c39,6.23,65.17,47.8,58.06,92.38h0c-7.11,44.58-44.87,76-83.91,69.74L1098.1,682.19c-39-6.23-65.17-47.8-58.06-92.38h0C956.28,633.69,949.23,494.84,997,492.54Z" transform="translate(394.93 8.65)"/><path class="cls-1" d="M1056.08,1914.77,1016.55,668.09c-1.37-43.19,33.5-82.87,77.48-88.17l52.18-6.29c44-5.3,81.09,25.7,82.46,68.89l39.53,1246.68c1.37,43.19-33.5,82.87-77.48,88.17l-52.18,6.29C1094.56,1989,1057.45,1958,1056.08,1914.77Z" transform="translate(394.93 8.65)"/><path class="cls-1" d="M928.51,1914.77,968,668.09c1.37-43.19-33.5-82.87-77.48-88.17l-52.18-6.29c-44-5.3-81.09,25.7-82.46,68.89L716.38,1889.2c-1.37,43.19,33.5,82.87,77.48,88.17l52.18,6.29C890,1989,927.14,1958,928.51,1914.77Z" transform="translate(394.93 8.65)"/><rect class="cls-1" x="1189.56" y="556.18" width="347.75" height="843.98" rx="12" ry="12"/></g><g id="Diagnose_Frequenz" data-name="Diagnose Frequenz"><polyline id="Körper" class="cls-2" points="1141.93 973.15 1257.34 973.15 1302.39 907.08 1344.85 1048.98 1404.28 813.42 1454.37 1164.75 1503.62 956.21 1631.49 963.67"/><polygon class="cls-3" points="1633.93 978.65 1633.01 947.27 1631.89 947.23 1629.65 980.02 1633.99 979.99 1633.93 978.65"/></g><g id="Ebene_4" data-name="Ebene 4"><line class="cls-4" x1="2053.61" y1="68.84" x2="2051.02" y2="507.6"/><line class="cls-4" x1="1832.93" y1="288.22" x2="2271.7" y2="290.81"/><text class="cls-5" transform="translate(425.93 406.13)">MAX</text><text x="394.93" y="8.65"></text></g></svg>